<svg xmlns="http://www.w3.org/2000/svg" viewBox="16 16 217.64 200.33">
  <g transform="matrix(5.208333333333333,0,0,5.208333333333333,0,0)">
    <path
      d="M35.62,3.63a.65.65,0,0,0-.66.66V6.74H10.06a.66.66,0,0,0-.67.66V37.87h32.2a2.66,2.66,0,0,0,2.66-2.65V4.29a.66.66,0,0,0-.66-.66Z"
      fill="#8ca4b8"></path>
    <path
      d="M44.25,4.29a.66.66,0,0,0-.66-.66h-8a.65.65,0,0,0-.66.66V6.74H10.06a.66.66,0,0,0-.67.66v3.32a.66.66,0,0,1,.67-.66H34a1,1,0,0,0,1-1V7.61A.65.65,0,0,1,35.62,7h8a.66.66,0,0,1,.66.66Z"
      fill="#adc4d9"></path>
    <path
      d="M35.62,3.63a.65.65,0,0,0-.66.66V6.74H10.06a.66.66,0,0,0-.67.66V37.87h32.2a2.66,2.66,0,0,0,2.66-2.65V4.29a.66.66,0,0,0-.66-.66Z"
      fill="none" stroke="#45413c" stroke-linecap="round" stroke-linejoin="round"></path>
    <path
      d="M38.86,35.22a2.65,2.65,0,0,0,2.65,2.65H6.66A2.66,2.66,0,0,1,4,35.22V12.31a.67.67,0,0,1,.66-.66H38.19a.67.67,0,0,1,.67.66Z"
      fill="#c0dceb"></path>
    <path
      d="M38.86,35.22V33.86H6.66A2.66,2.66,0,0,1,4,31.21v4a2.66,2.66,0,0,0,2.66,2.65H41.51A2.65,2.65,0,0,1,38.86,35.22Z"
      fill="#adc4d9"></path>
    <path
      d="M38.86,35.22a2.65,2.65,0,0,0,2.65,2.65H6.66A2.66,2.66,0,0,1,4,35.22V12.31a.67.67,0,0,1,.66-.66H38.19a.67.67,0,0,1,.67.66Z"
      fill="none" stroke="#45413c" stroke-linecap="round" stroke-linejoin="round"></path>
  </g>
</svg>